<svg width="335" height="199" viewBox="0 0 335 199" fill="none" xmlns="http://www.w3.org/2000/svg">
<g filter="url(#filter0_b_3_30)">
<path d="M14.0306 162.98L14.0577 102.988C14.0611 95.3958 23.4827 88.5708 29.6628 86.0427L29.6672 13.0053C29.6701 6.44377 29.2259 1.00953 34.917 1.0121L45.3237 1.01679C51.0148 1.01936 50.4834 6.44234 50.4805 13.0039L50.4761 86.0412C56.6539 88.5749 66.0944 95.4192 66.0909 103.012L66.0639 163.004C66.0624 166.284 63.7034 169.002 60.8578 169C58.0123 168.999 55.6557 166.28 55.6572 162.999L55.6748 124.004C55.6763 120.724 53.3198 118.004 50.4742 118.003C47.6286 118.002 45.2696 120.719 45.2682 124L45.2506 162.994C45.2491 166.275 42.8901 168.992 40.0445 168.991C37.199 168.99 34.8424 166.27 34.8439 162.989L34.8615 123.995C34.863 120.714 32.5065 117.995 29.6609 117.993C26.8153 117.992 24.4563 120.709 24.4549 123.99L24.4373 162.985C24.4358 166.266 22.0768 168.983 19.2312 168.982C16.3857 168.98 14.0291 166.261 14.0306 162.98Z" fill="white" stroke="white" stroke-width="0.0818182"/>
<path d="M92.66 125L92.66 76.4L99.56 76.4L110.36 101.72L110.36 76.4L118.52 76.4L118.52 125L111.92 125L101.12 98.12L101.12 125L92.66 125ZM131.223 125.6C129.823 125.6 128.643 125.24 127.683 124.52C126.763 123.8 126.083 122.84 125.643 121.64C125.203 120.44 124.983 119.12 124.983 117.68L124.983 90.32L134.043 90.32L134.043 116.36C134.043 117.32 134.203 118.06 134.523 118.58C134.843 119.06 135.423 119.3 136.263 119.3C136.743 119.3 137.243 119.18 137.763 118.94C138.323 118.66 138.883 118.34 139.443 117.98L139.443 90.32L148.503 90.32L148.503 125L139.443 125L139.443 121.76C138.243 122.92 136.943 123.86 135.543 124.58C134.183 125.26 132.743 125.6 131.223 125.6ZM165.137 125.36C162.737 125.36 160.857 125 159.497 124.28C158.137 123.52 157.197 122.44 156.677 121.04C156.157 119.64 155.897 117.94 155.897 115.94L155.897 96.26L152.477 96.26L152.477 90.32L155.897 90.32L155.897 79.82L165.077 79.82L165.077 90.32L170.117 90.32L170.117 96.26L165.077 96.26L165.077 115.1C165.077 116.18 165.337 116.96 165.857 117.44C166.417 117.88 167.177 118.1 168.137 118.1C168.617 118.1 169.077 118.08 169.517 118.04C169.957 117.96 170.357 117.9 170.717 117.86L170.717 124.94C170.157 125.02 169.357 125.1 168.317 125.18C167.277 125.3 166.217 125.36 165.137 125.36ZM175.502 125L175.502 90.32L184.562 90.32L184.562 95.9C185.722 93.86 186.862 92.36 187.982 91.4C189.142 90.4 190.502 89.9 192.062 89.9C192.342 89.9 192.582 89.92 192.782 89.96C193.022 89.96 193.242 90 193.442 90.08L193.442 99.2C193.002 99 192.502 98.84 191.942 98.72C191.382 98.56 190.802 98.48 190.202 98.48C189.082 98.48 188.062 98.78 187.142 99.38C186.222 99.94 185.362 100.76 184.562 101.84L184.562 125L175.502 125ZM197.709 125L197.709 90.32L206.769 90.32L206.769 125L197.709 125ZM197.649 84.62L197.649 77.84L206.769 77.84L206.769 84.62L197.649 84.62ZM226.139 125.66C223.139 125.66 220.639 125.12 218.639 124.04C216.639 122.92 215.119 121.26 214.079 119.06C213.079 116.82 212.499 113.98 212.339 110.54L220.859 109.1C220.939 111.1 221.139 112.78 221.459 114.14C221.819 115.46 222.339 116.46 223.019 117.14C223.739 117.78 224.619 118.1 225.659 118.1C226.939 118.1 227.799 117.7 228.239 116.9C228.719 116.1 228.959 115.18 228.959 114.14C228.959 112.1 228.459 110.4 227.459 109.04C226.499 107.64 225.219 106.24 223.619 104.84L218.579 100.46C216.779 98.94 215.299 97.22 214.139 95.3C213.019 93.38 212.459 91.02 212.459 88.22C212.459 84.22 213.619 81.16 215.939 79.04C218.299 76.88 221.519 75.8 225.599 75.8C228.039 75.8 230.039 76.2 231.599 77C233.159 77.8 234.359 78.88 235.199 80.24C236.079 81.56 236.679 83.02 236.999 84.62C237.359 86.18 237.579 87.74 237.659 89.3L229.199 90.56C229.119 89.08 228.979 87.78 228.779 86.66C228.619 85.54 228.259 84.66 227.699 84.02C227.179 83.38 226.379 83.06 225.299 83.06C224.139 83.06 223.279 83.5 222.719 84.38C222.159 85.22 221.879 86.16 221.879 87.2C221.879 88.92 222.259 90.34 223.019 91.46C223.819 92.54 224.899 93.68 226.259 94.88L231.179 99.2C233.219 100.96 234.959 102.98 236.399 105.26C237.879 107.5 238.619 110.28 238.619 113.6C238.619 115.88 238.099 117.94 237.059 119.78C236.019 121.62 234.559 123.06 232.679 124.1C230.839 125.14 228.659 125.66 226.139 125.66ZM246.712 125L241.492 90.32L249.052 90.32L251.812 111.26L254.932 90.32L261.532 90.32L264.352 111.62L267.472 90.32L274.552 90.32L269.212 125L261.472 125L258.112 104.42L254.452 125L246.712 125ZM285.875 125.6C284.235 125.6 282.815 125.18 281.615 124.34C280.455 123.5 279.575 122.44 278.975 121.16C278.375 119.88 278.075 118.56 278.075 117.2C278.075 115.04 278.495 113.22 279.335 111.74C280.175 110.26 281.275 109.02 282.635 108.02C283.995 107.02 285.515 106.16 287.195 105.44C288.875 104.72 290.555 104.06 292.235 103.46L292.235 100.22C292.235 99.46 292.175 98.8 292.055 98.24C291.935 97.68 291.695 97.26 291.335 96.98C291.015 96.66 290.535 96.5 289.895 96.5C289.255 96.5 288.755 96.64 288.395 96.92C288.075 97.16 287.835 97.54 287.675 98.06C287.555 98.54 287.475 99.08 287.435 99.68L287.255 102.08L278.675 101.72C278.875 97.64 279.935 94.62 281.855 92.66C283.815 90.7 286.755 89.72 290.675 89.72C294.195 89.72 296.795 90.7 298.475 92.66C300.155 94.58 300.995 97.12 300.995 100.28L300.995 116.42C300.995 117.78 301.015 119 301.055 120.08C301.135 121.12 301.215 122.06 301.295 122.9C301.415 123.7 301.515 124.4 301.595 125L293.435 125C293.315 124.12 293.175 123.16 293.015 122.12C292.855 121.08 292.735 120.38 292.655 120.02C292.255 121.46 291.495 122.76 290.375 123.92C289.255 125.04 287.755 125.6 285.875 125.6ZM289.175 119.18C289.615 119.18 290.035 119.08 290.435 118.88C290.835 118.68 291.175 118.42 291.455 118.1C291.775 117.78 292.035 117.48 292.235 117.2L292.235 107.66C291.395 108.18 290.615 108.7 289.895 109.22C289.175 109.7 288.555 110.24 288.035 110.84C287.515 111.44 287.115 112.1 286.835 112.82C286.555 113.54 286.415 114.36 286.415 115.28C286.415 116.48 286.655 117.44 287.135 118.16C287.615 118.84 288.295 119.18 289.175 119.18ZM306.866 136.4L306.866 90.32L315.926 90.32L315.926 92.9C317.006 91.9 318.166 91.12 319.406 90.56C320.686 90 321.966 89.72 323.246 89.72C324.646 89.72 325.826 90.04 326.786 90.68C327.746 91.28 328.526 92.1 329.126 93.14C329.726 94.18 330.146 95.34 330.386 96.62C330.626 97.9 330.746 99.2 330.746 100.52L330.746 114.08C330.746 116.32 330.466 118.3 329.906 120.02C329.346 121.74 328.486 123.1 327.326 124.1C326.206 125.1 324.746 125.6 322.946 125.6C321.706 125.6 320.486 125.3 319.286 124.7C318.126 124.1 317.006 123.32 315.926 122.36L315.926 136.4L306.866 136.4ZM318.926 119.54C319.686 119.54 320.246 119.32 320.606 118.88C321.006 118.4 321.286 117.78 321.446 117.02C321.606 116.26 321.686 115.42 321.686 114.5L321.686 99.98C321.686 99.14 321.606 98.38 321.446 97.7C321.286 97.02 321.006 96.48 320.606 96.08C320.206 95.64 319.666 95.42 318.986 95.42C318.426 95.42 317.886 95.56 317.366 95.84C316.846 96.08 316.366 96.4 315.926 96.8L315.926 118.52C316.406 118.84 316.886 119.1 317.366 119.3C317.846 119.46 318.366 119.54 318.926 119.54Z" fill="white"/>
<path d="M92.66 125L92.16 125L92.16 125.5L92.66 125.5L92.66 125ZM92.66 76.4L92.66 75.9L92.16 75.9L92.16 76.4L92.66 76.4ZM99.56 76.4L100.02 76.2038L99.8903 75.9L99.56 75.9L99.56 76.4ZM110.36 101.72L109.9 101.916L110.86 101.72L110.36 101.72ZM110.36 76.4L110.36 75.9L109.86 75.9L109.86 76.4L110.36 76.4ZM118.52 76.4L119.02 76.4L119.02 75.9L118.52 75.9L118.52 76.4ZM118.52 125L118.52 125.5L119.02 125.5L119.02 125L118.52 125ZM111.92 125L111.456 125.186L111.582 125.5L111.92 125.5L111.92 125ZM101.12 98.12L101.584 97.9336L100.62 98.12L101.12 98.12ZM101.12 125L101.12 125.5L101.62 125.5L101.62 125L101.12 125ZM93.16 125L93.16 76.4L92.16 76.4L92.16 125L93.16 125ZM92.66 76.9L99.56 76.9L99.56 75.9L92.66 75.9L92.66 76.9ZM99.1001 76.5962L109.9 101.916L110.82 101.524L100.02 76.2038L99.1001 76.5962ZM110.86 101.72L110.86 76.4L109.86 76.4L109.86 101.72L110.86 101.72ZM110.36 76.9L118.52 76.9L118.52 75.9L110.36 75.9L110.36 76.9ZM118.02 76.4L118.02 125L119.02 125L119.02 76.4L118.02 76.4ZM118.52 124.5L111.92 124.5L111.92 125.5L118.52 125.5L118.52 124.5ZM112.384 124.814L101.584 97.9336L100.656 98.3064L111.456 125.186L112.384 124.814ZM100.62 98.12L100.62 125L101.62 125L101.62 98.12L100.62 98.12ZM101.12 124.5L92.66 124.5L92.66 125.5L101.12 125.5L101.12 124.5ZM127.683 124.52L127.374 124.914L127.383 124.92L127.683 124.52ZM125.643 121.64L125.173 121.812L125.643 121.64ZM124.983 90.32L124.983 89.82L124.483 89.82L124.483 90.32L124.983 90.32ZM134.043 90.32L134.543 90.32L134.543 89.82L134.043 89.82L134.043 90.32ZM134.523 118.58L134.097 118.842L134.102 118.85L134.107 118.857L134.523 118.58ZM137.763 118.94L137.972 119.394L137.979 119.391L137.986 119.387L137.763 118.94ZM139.443 117.98L139.713 118.401L139.943 118.253L139.943 117.98L139.443 117.98ZM139.443 90.32L139.443 89.82L138.943 89.82L138.943 90.32L139.443 90.32ZM148.503 90.32L149.003 90.32L149.003 89.82L148.503 89.82L148.503 90.32ZM148.503 125L148.503 125.5L149.003 125.5L149.003 125L148.503 125ZM139.443 125L138.943 125L138.943 125.5L139.443 125.5L139.443 125ZM139.443 121.76L139.943 121.76L139.943 120.581L139.095 121.401L139.443 121.76ZM135.543 124.58L135.766 125.027L135.771 125.025L135.543 124.58ZM131.223 125.1C129.912 125.1 128.842 124.765 127.983 124.12L127.383 124.92C128.443 125.715 129.733 126.1 131.223 126.1L131.223 125.1ZM127.991 124.126C127.151 123.469 126.523 122.589 126.112 121.468L125.173 121.812C125.642 123.091 126.374 124.131 127.374 124.914L127.991 124.126ZM126.112 121.468C125.695 120.33 125.483 119.069 125.483 117.68L124.483 117.68C124.483 119.171 124.711 120.55 125.173 121.812L126.112 121.468ZM125.483 117.68L125.483 90.32L124.483 90.32L124.483 117.68L125.483 117.68ZM124.983 90.82L134.043 90.82L134.043 89.82L124.983 89.82L124.983 90.82ZM133.543 90.32L133.543 116.36L134.543 116.36L134.543 90.32L133.543 90.32ZM133.543 116.36C133.543 117.364 133.708 118.21 134.097 118.842L134.948 118.318C134.697 117.91 134.543 117.276 134.543 116.36L133.543 116.36ZM134.107 118.857C134.557 119.533 135.337 119.8 136.263 119.8L136.263 118.8C135.508 118.8 135.128 118.587 134.939 118.303L134.107 118.857ZM136.263 119.8C136.828 119.8 137.399 119.659 137.972 119.394L137.553 118.486C137.086 118.701 136.658 118.8 136.263 118.8L136.263 119.8ZM137.986 119.387C138.563 119.099 139.139 118.77 139.713 118.401L139.172 117.559C138.626 117.91 138.082 118.221 137.539 118.493L137.986 119.387ZM139.943 117.98L139.943 90.32L138.943 90.32L138.943 117.98L139.943 117.98ZM139.443 90.82L148.503 90.82L148.503 89.82L139.443 89.82L139.443 90.82ZM148.003 90.32L148.003 125L149.003 125L149.003 90.32L148.003 90.32ZM148.503 124.5L139.443 124.5L139.443 125.5L148.503 125.5L148.503 124.5ZM139.943 125L139.943 121.76L138.943 121.76L138.943 125L139.943 125ZM139.095 121.401C137.928 122.529 136.668 123.439 135.314 124.135L135.771 125.025C137.217 124.281 138.557 123.311 139.79 122.119L139.095 121.401ZM135.319 124.133C134.028 124.778 132.665 125.1 131.223 125.1L131.223 126.1C132.82 126.1 134.337 125.742 135.766 125.027L135.319 124.133ZM159.497 124.28L159.253 124.717L159.263 124.722L159.497 124.28ZM156.677 121.04L157.145 120.866L157.145 120.866L156.677 121.04ZM155.897 96.26L156.397 96.26L156.397 95.76L155.897 95.76L155.897 96.26ZM152.477 96.26L151.977 96.26L151.977 96.76L152.477 96.76L152.477 96.26ZM152.477 90.32L152.477 89.82L151.977 89.82L151.977 90.32L152.477 90.32ZM155.897 90.32L155.897 90.82L156.397 90.82L156.397 90.32L155.897 90.32ZM155.897 79.82L155.897 79.32L155.397 79.32L155.397 79.82L155.897 79.82ZM165.077 79.82L165.577 79.82L165.577 79.32L165.077 79.32L165.077 79.82ZM165.077 90.32L164.577 90.32L164.577 90.82L165.077 90.82L165.077 90.32ZM170.117 90.32L170.617 90.32L170.617 89.82L170.117 89.82L170.117 90.32ZM170.117 96.26L170.117 96.76L170.617 96.76L170.617 96.26L170.117 96.26ZM165.077 96.26L165.077 95.76L164.577 95.76L164.577 96.26L165.077 96.26ZM165.857 117.44L165.518 117.807L165.532 117.821L165.548 117.833L165.857 117.44ZM169.517 118.04L169.562 118.538L169.584 118.536L169.606 118.532L169.517 118.04ZM170.717 117.86L171.217 117.86L171.217 117.301L170.661 117.363L170.717 117.86ZM170.717 124.94L170.787 125.435L171.217 125.374L171.217 124.94L170.717 124.94ZM168.317 125.18L168.278 124.681L168.269 124.682L168.259 124.683L168.317 125.18ZM165.137 124.86C162.777 124.86 160.989 124.504 159.731 123.838L159.263 124.722C160.724 125.496 162.696 125.86 165.137 125.86L165.137 124.86ZM159.741 123.844C158.479 123.139 157.622 122.149 157.145 120.866L156.208 121.214C156.771 122.731 157.794 123.901 159.253 124.716L159.741 123.844ZM157.145 120.866C156.652 119.537 156.397 117.899 156.397 115.94L155.397 115.94C155.397 117.981 155.662 119.743 156.208 121.214L157.145 120.866ZM156.397 115.94L156.397 96.26L155.397 96.26L155.397 115.94L156.397 115.94ZM155.897 95.76L152.477 95.76L152.477 96.76L155.897 96.76L155.897 95.76ZM152.977 96.26L152.977 90.32L151.977 90.32L151.977 96.26L152.977 96.26ZM152.477 90.82L155.897 90.82L155.897 89.82L152.477 89.82L152.477 90.82ZM156.397 90.32L156.397 79.82L155.397 79.82L155.397 90.32L156.397 90.32ZM155.897 80.32L165.077 80.32L165.077 79.32L155.897 79.32L155.897 80.32ZM164.577 79.82L164.577 90.32L165.577 90.32L165.577 79.82L164.577 79.82ZM165.077 90.82L170.117 90.82L170.117 89.82L165.077 89.82L165.077 90.82ZM169.617 90.32L169.617 96.26L170.617 96.26L170.617 90.32L169.617 90.32ZM170.117 95.76L165.077 95.76L165.077 96.76L170.117 96.76L170.117 95.76ZM164.577 96.26L164.577 115.1L165.577 115.1L165.577 96.26L164.577 96.26ZM164.577 115.1C164.577 116.247 164.852 117.193 165.518 117.807L166.196 117.073C165.822 116.727 165.577 116.113 165.577 115.1L164.577 115.1ZM165.548 117.833C166.222 118.363 167.103 118.6 168.137 118.6L168.137 117.6C167.25 117.6 166.611 117.397 166.166 117.047L165.548 117.833ZM168.137 118.6C168.631 118.6 169.106 118.579 169.562 118.538L169.471 117.542C169.048 117.581 168.603 117.6 168.137 117.6L168.137 118.6ZM169.606 118.532C170.037 118.454 170.426 118.395 170.772 118.357L170.661 117.363C170.288 117.405 169.876 117.466 169.427 117.548L169.606 118.532ZM170.217 117.86L170.217 124.94L171.217 124.94L171.217 117.86L170.217 117.86ZM170.646 124.445C170.102 124.523 169.315 124.602 168.278 124.681L168.355 125.679C169.399 125.598 170.211 125.517 170.787 125.435L170.646 124.445ZM168.259 124.683C167.239 124.801 166.198 124.86 165.137 124.86L165.137 125.86C166.235 125.86 167.314 125.799 168.374 125.677L168.259 124.683ZM175.502 125L175.002 125L175.002 125.5L175.502 125.5L175.502 125ZM175.502 90.32L175.502 89.82L175.002 89.82L175.002 90.32L175.502 90.32ZM184.562 90.32L185.062 90.32L185.062 89.82L184.562 89.82L184.562 90.32ZM184.562 95.9L184.062 95.9L184.062 97.7908L184.996 96.1472L184.562 95.9ZM187.982 91.4L188.307 91.7796L188.308 91.7787L187.982 91.4ZM192.782 89.96L192.684 90.4503L192.732 90.46L192.782 90.46L192.782 89.96ZM193.442 90.08L193.942 90.08L193.942 89.7415L193.627 89.6158L193.442 90.08ZM193.442 99.2L193.235 99.6552L193.942 99.9765L193.942 99.2L193.442 99.2ZM191.942 98.72L191.804 99.2008L191.821 99.2054L191.837 99.2089L191.942 98.72ZM187.142 99.38L187.402 99.8071L187.408 99.8031L187.415 99.7988L187.142 99.38ZM184.562 101.84L184.16 101.542L184.062 101.675L184.062 101.84L184.562 101.84ZM184.562 125L184.562 125.5L185.062 125.5L185.062 125L184.562 125ZM176.002 125L176.002 90.32L175.002 90.32L175.002 125L176.002 125ZM175.502 90.82L184.562 90.82L184.562 89.82L175.502 89.82L175.502 90.82ZM184.062 90.32L184.062 95.9L185.062 95.9L185.062 90.32L184.062 90.32ZM184.996 96.1472C186.143 94.1312 187.249 92.6866 188.307 91.7796L187.656 91.0204C186.474 92.0334 185.301 93.5887 184.127 95.6528L184.996 96.1472ZM188.308 91.7787C189.376 90.8585 190.619 90.4 192.062 90.4L192.062 89.4C190.384 89.4 188.908 89.9415 187.655 91.0213L188.308 91.7787ZM192.062 90.4C192.32 90.4 192.525 90.4186 192.684 90.4503L192.88 89.4697C192.638 89.4214 192.363 89.4 192.062 89.4L192.062 90.4ZM192.782 90.46C192.965 90.46 193.121 90.4904 193.256 90.5442L193.627 89.6158C193.362 89.5096 193.078 89.46 192.782 89.46L192.782 90.46ZM192.942 90.08L192.942 99.2L193.942 99.2L193.942 90.08L192.942 90.08ZM193.649 98.7448C193.171 98.5275 192.635 98.3573 192.046 98.2311L191.837 99.2089C192.368 99.3227 192.833 99.4725 193.235 99.6552L193.649 98.7448ZM192.079 98.2392C191.473 98.0661 190.847 97.98 190.202 97.98L190.202 98.98C190.757 98.98 191.29 99.0539 191.804 99.2008L192.079 98.2392ZM190.202 97.98C188.987 97.98 187.872 98.3071 186.869 98.9612L187.415 99.7988C188.252 99.2529 189.177 98.98 190.202 98.98L190.202 97.98ZM186.882 98.9529C185.895 99.5537 184.989 100.423 184.16 101.542L184.963 102.138C185.734 101.097 186.549 100.326 187.402 99.8071L186.882 98.9529ZM184.062 101.84L184.062 125L185.062 125L185.062 101.84L184.062 101.84ZM184.562 124.5L175.502 124.5L175.502 125.5L184.562 125.5L184.562 124.5ZM197.709 125L197.209 125L197.209 125.5L197.709 125.5L197.709 125ZM197.709 90.32L197.709 89.82L197.209 89.82L197.209 90.32L197.709 90.32ZM206.769 90.32L207.269 90.32L207.269 89.82L206.769 89.82L206.769 90.32ZM206.769 125L206.769 125.5L207.269 125.5L207.269 125L206.769 125ZM197.649 84.62L197.149 84.62L197.149 85.12L197.649 85.12L197.649 84.62ZM197.649 77.84L197.649 77.34L197.149 77.34L197.149 77.84L197.649 77.84ZM206.769 77.84L207.269 77.84L207.269 77.34L206.769 77.34L206.769 77.84ZM206.769 84.62L206.769 85.12L207.269 85.12L207.269 84.62L206.769 84.62ZM198.209 125L198.209 90.32L197.209 90.32L197.209 125L198.209 125ZM197.709 90.82L206.769 90.82L206.769 89.82L197.709 89.82L197.709 90.82ZM206.269 90.32L206.269 125L207.269 125L207.269 90.32L206.269 90.32ZM206.769 124.5L197.709 124.5L197.709 125.5L206.769 125.5L206.769 124.5ZM198.149 84.62L198.149 77.84L197.149 77.84L197.149 84.62L198.149 84.62ZM197.649 78.34L206.769 78.34L206.769 77.34L197.649 77.34L197.649 78.34ZM206.269 77.84L206.269 84.62L207.269 84.62L207.269 77.84L206.269 77.84ZM206.769 84.12L197.649 84.12L197.649 85.12L206.769 85.12L206.769 84.12ZM218.639 124.04L218.395 124.476L218.401 124.48L218.639 124.04ZM214.079 119.06L213.622 119.264L213.627 119.274L214.079 119.06ZM212.339 110.54L212.256 110.047L211.819 110.121L211.839 110.563L212.339 110.54ZM220.859 109.1L221.358 109.08L221.336 108.512L220.776 108.607L220.859 109.1ZM221.459 114.14L220.972 114.255L220.974 114.263L220.977 114.272L221.459 114.14ZM223.019 117.14L222.665 117.494L222.676 117.504L222.687 117.514L223.019 117.14ZM228.239 116.9L227.81 116.643L227.805 116.651L227.801 116.659L228.239 116.9ZM227.459 109.04L227.047 109.323L227.051 109.33L227.056 109.336L227.459 109.04ZM223.619 104.84L223.948 104.464L223.947 104.463L223.619 104.84ZM218.579 100.46L218.907 100.083L218.901 100.078L218.579 100.46ZM214.139 95.3L213.707 95.552L213.711 95.5586L214.139 95.3ZM215.939 79.04L216.276 79.4091L216.276 79.4088L215.939 79.04ZM231.599 77L231.371 77.4449L231.371 77.4449L231.599 77ZM235.199 80.24L234.774 80.5027L234.778 80.5101L234.783 80.5173L235.199 80.24ZM236.999 84.62L236.509 84.7181L236.51 84.7253L236.512 84.7324L236.999 84.62ZM237.659 89.3L237.733 89.7945L238.181 89.7277L238.158 89.2744L237.659 89.3ZM229.199 90.56L228.7 90.587L228.729 91.1355L229.273 91.0545L229.199 90.56ZM228.779 86.66L228.284 86.7307L228.285 86.7393L228.287 86.7479L228.779 86.66ZM227.699 84.02L227.311 84.3353L227.317 84.3424L227.323 84.3493L227.699 84.02ZM222.719 84.38L223.135 84.6574L223.141 84.6484L222.719 84.38ZM223.019 91.46L222.605 91.7407L222.611 91.7493L222.617 91.7576L223.019 91.46ZM226.259 94.88L225.928 95.2549L225.929 95.2557L226.259 94.88ZM231.179 99.2L230.849 99.5757L230.852 99.5786L231.179 99.2ZM236.399 105.26L235.976 105.527L235.982 105.536L236.399 105.26ZM237.059 119.78L236.624 119.534L236.624 119.534L237.059 119.78ZM232.679 124.1L232.437 123.662L232.433 123.665L232.679 124.1ZM226.139 125.16C223.196 125.16 220.784 124.63 218.876 123.6L218.401 124.48C220.494 125.61 223.082 126.16 226.139 126.16L226.139 125.16ZM218.883 123.604C216.98 122.538 215.529 120.958 214.531 118.846L213.627 119.274C214.708 121.562 216.298 123.302 218.395 124.476L218.883 123.604ZM214.535 118.856C213.569 116.691 212.997 113.918 212.838 110.517L211.839 110.563C212.001 114.042 212.589 116.949 213.622 119.264L214.535 118.856ZM212.422 111.033L220.942 109.593L220.776 108.607L212.256 110.047L212.422 111.033ZM220.359 109.12C220.44 111.139 220.643 112.853 220.972 114.255L221.946 114.025C221.635 112.707 221.438 111.061 221.358 109.08L220.359 109.12ZM220.977 114.272C221.35 115.642 221.903 116.731 222.665 117.494L223.372 116.786C222.775 116.189 222.288 115.278 221.941 114.008L220.977 114.272ZM222.687 117.514C223.506 118.242 224.507 118.6 225.659 118.6L225.659 117.6C224.731 117.6 223.972 117.318 223.351 116.766L222.687 117.514ZM225.659 118.6C227.039 118.6 228.115 118.162 228.677 117.141L227.801 116.659C227.482 117.238 226.839 117.6 225.659 117.6L225.659 118.6ZM228.668 117.157C229.199 116.271 229.459 115.26 229.459 114.14L228.459 114.14C228.459 115.1 228.238 115.929 227.81 116.643L228.668 117.157ZM229.459 114.14C229.459 112.016 228.937 110.206 227.862 108.744L227.056 109.336C227.981 110.594 228.459 112.184 228.459 114.14L229.459 114.14ZM227.871 108.757C226.883 107.315 225.572 105.885 223.948 104.464L223.29 105.216C224.866 106.595 226.115 107.965 227.047 109.323L227.871 108.757ZM223.947 104.463L218.907 100.083L218.251 100.837L223.291 105.217L223.947 104.463ZM218.901 100.078C217.141 98.5913 215.697 96.9125 214.567 95.0414L213.711 95.5586C214.9 97.5275 216.417 99.2887 218.256 100.842L218.901 100.078ZM214.571 95.0481C213.506 93.222 212.959 90.9541 212.959 88.22L211.959 88.22C211.959 91.0858 212.532 93.538 213.707 95.5519L214.571 95.0481ZM212.959 88.22C212.959 84.3196 214.087 81.41 216.276 79.4091L215.602 78.6709C213.151 80.91 211.959 84.1204 211.959 88.22L212.959 88.22ZM216.276 79.4088C218.521 77.3545 221.608 76.3 225.599 76.3L225.599 75.3C221.43 75.3 218.077 76.4055 215.601 78.6712L216.276 79.4088ZM225.599 76.3C227.989 76.3 229.903 76.6925 231.371 77.4449L231.827 76.5551C230.174 75.7075 228.089 75.3 225.599 75.3L225.599 76.3ZM231.371 77.4449C232.858 78.2075 233.986 79.2277 234.774 80.5027L235.624 79.9773C234.732 78.5323 233.46 77.3925 231.827 76.5551L231.371 77.4449ZM234.783 80.5173C235.626 81.7814 236.201 83.1802 236.509 84.7181L237.489 84.5219C237.157 82.8598 236.532 81.3385 235.615 79.9626L234.783 80.5173ZM236.512 84.7324C236.865 86.2646 237.081 87.7956 237.16 89.3256L238.158 89.2744C238.077 87.6844 237.853 86.0954 237.486 84.5076L236.512 84.7324ZM237.585 88.8055L229.125 90.0655L229.273 91.0545L237.733 89.7945L237.585 88.8055ZM229.698 90.533C229.617 89.0383 229.476 87.7172 229.271 86.5721L228.287 86.7479C228.482 87.8428 228.62 89.1217 228.7 90.587L229.698 90.533ZM229.274 86.5893C229.105 85.4044 228.717 84.4241 228.075 83.6907L227.323 84.3493C227.801 84.8959 228.133 85.6756 228.284 86.7307L229.274 86.5893ZM228.087 83.7047C227.444 82.9138 226.479 82.56 225.299 82.56L225.299 83.56C226.279 83.56 226.913 83.8462 227.311 84.3353L228.087 83.7047ZM225.299 82.56C223.991 82.56 222.96 83.0691 222.297 84.1116L223.141 84.6484C223.597 83.9308 224.287 83.56 225.299 83.56L225.299 82.56ZM222.303 84.1026C221.686 85.0274 221.379 86.0644 221.379 87.2L222.379 87.2C222.379 86.2556 222.631 85.4126 223.135 84.6573L222.303 84.1026ZM221.379 87.2C221.379 88.9931 221.775 90.518 222.605 91.7407L223.433 91.1792C222.742 90.162 222.379 88.8469 222.379 87.2L221.379 87.2ZM222.617 91.7576C223.444 92.8736 224.55 94.0392 225.928 95.2549L226.59 94.5051C225.248 93.3208 224.194 92.2064 223.421 91.1624L222.617 91.7576ZM225.929 95.2557L230.849 99.5757L231.509 98.8243L226.589 94.5043L225.929 95.2557ZM230.852 99.5786C232.855 101.306 234.562 103.289 235.976 105.527L236.822 104.993C235.355 102.671 233.583 100.614 231.506 98.8214L230.852 99.5786ZM235.982 105.536C237.396 107.676 238.119 110.355 238.119 113.6L239.119 113.6C239.119 110.205 238.362 107.324 236.816 104.984L235.982 105.536ZM238.119 113.6C238.119 115.801 237.618 117.775 236.624 119.534L237.494 120.026C238.58 118.105 239.119 115.959 239.119 113.6L238.119 113.6ZM236.624 119.534C235.63 121.292 234.237 122.666 232.437 123.662L232.921 124.538C234.88 123.454 236.408 121.948 237.494 120.026L236.624 119.534ZM232.433 123.665C230.681 124.655 228.589 125.16 226.139 125.16L226.139 126.16C228.729 126.16 230.997 125.625 232.925 124.535L232.433 123.665ZM246.712 125L246.217 125.074L246.281 125.5L246.712 125.5L246.712 125ZM241.492 90.32L241.492 89.82L240.911 89.82L240.997 90.3944L241.492 90.32ZM249.052 90.32L249.548 90.2547L249.49 89.82L249.052 89.82L249.052 90.32ZM251.812 111.26L251.316 111.325L252.306 111.334L251.812 111.26ZM254.932 90.32L254.932 89.82L254.501 89.82L254.437 90.2463L254.932 90.32ZM261.532 90.32L262.028 90.2544L261.97 89.82L261.532 89.82L261.532 90.32ZM264.352 111.62L263.856 111.686L264.847 111.692L264.352 111.62ZM267.472 90.32L267.472 89.82L267.04 89.82L266.977 90.2475L267.472 90.32ZM274.552 90.32L275.046 90.3961L275.135 89.82L274.552 89.82L274.552 90.32ZM269.212 125L269.212 125.5L269.641 125.5L269.706 125.076L269.212 125ZM261.472 125L260.978 125.081L261.047 125.5L261.472 125.5L261.472 125ZM258.112 104.42L258.605 104.339L257.62 104.332L258.112 104.42ZM254.452 125L254.452 125.5L254.871 125.5L254.944 125.088L254.452 125ZM247.206 124.926L241.986 90.2456L240.997 90.3944L246.217 125.074L247.206 124.926ZM241.492 90.82L249.052 90.82L249.052 89.82L241.492 89.82L241.492 90.82ZM248.556 90.3853L251.316 111.325L252.308 111.195L249.548 90.2547L248.556 90.3853ZM252.306 111.334L255.426 90.3937L254.437 90.2463L251.317 111.186L252.306 111.334ZM254.932 90.82L261.532 90.82L261.532 89.82L254.932 89.82L254.932 90.82ZM261.036 90.3856L263.856 111.686L264.848 111.554L262.028 90.2544L261.036 90.3856ZM264.847 111.692L267.967 90.3925L266.977 90.2475L263.857 111.548L264.847 111.692ZM267.472 90.82L274.552 90.82L274.552 89.82L267.472 89.82L267.472 90.82ZM274.058 90.2439L268.718 124.924L269.706 125.076L275.046 90.3961L274.058 90.2439ZM269.212 124.5L261.472 124.5L261.472 125.5L269.212 125.5L269.212 124.5ZM261.965 124.919L258.605 104.339L257.618 104.501L260.978 125.081L261.965 124.919ZM257.62 104.332L253.96 124.912L254.944 125.088L258.604 104.508L257.62 104.332ZM254.452 124.5L246.712 124.5L246.712 125.5L254.452 125.5L254.452 124.5ZM281.615 124.34L281.322 124.745L281.329 124.75L281.615 124.34ZM278.975 121.16L279.428 120.948L279.428 120.948L278.975 121.16ZM282.635 108.02L282.932 108.423L282.932 108.423L282.635 108.02ZM287.195 105.44L287.392 105.9L287.392 105.9L287.195 105.44ZM292.235 103.46L292.404 103.931L292.735 103.812L292.735 103.46L292.235 103.46ZM291.335 96.98L290.982 97.3336L291.004 97.3556L291.028 97.3747L291.335 96.98ZM288.395 96.92L288.696 97.3201L288.702 97.3147L288.395 96.92ZM287.675 98.06L287.198 97.913L287.194 97.9257L287.19 97.9387L287.675 98.06ZM287.435 99.68L287.934 99.7174L287.934 99.7133L287.435 99.68ZM287.255 102.08L287.235 102.58L287.718 102.6L287.754 102.117L287.255 102.08ZM278.675 101.72L278.176 101.696L278.151 102.198L278.655 102.22L278.675 101.72ZM281.855 92.66L281.502 92.3064L281.498 92.3101L281.855 92.66ZM298.475 92.66L298.096 92.9854L298.099 92.9893L298.475 92.66ZM301.055 120.08L300.556 120.099L300.556 120.108L300.557 120.118L301.055 120.08ZM301.295 122.9L300.798 122.947L300.799 122.961L300.801 122.974L301.295 122.9ZM301.595 125L301.595 125.5L302.167 125.5L302.091 124.934L301.595 125ZM293.435 125L292.94 125.068L292.999 125.5L293.435 125.5L293.435 125ZM293.015 122.12L292.521 122.196L293.015 122.12ZM292.655 120.02L293.144 119.912L292.174 119.886L292.655 120.02ZM290.375 123.92L290.729 124.274L290.735 124.267L290.375 123.92ZM291.455 118.1L291.102 117.746L291.09 117.758L291.079 117.771L291.455 118.1ZM292.235 117.2L292.642 117.491L292.735 117.36L292.735 117.2L292.235 117.2ZM292.235 107.66L292.735 107.66L292.735 106.762L291.972 107.235L292.235 107.66ZM289.895 109.22L290.173 109.636L290.181 109.631L290.188 109.625L289.895 109.22ZM287.135 118.16L286.719 118.437L286.727 118.448L287.135 118.16ZM285.875 125.1C284.325 125.1 283.008 124.705 281.902 123.93L281.329 124.75C282.623 125.655 284.146 126.1 285.875 126.1L285.875 125.1ZM281.909 123.935C280.816 123.144 279.992 122.15 279.428 120.948L278.523 121.372C279.159 122.73 280.095 123.856 281.322 124.745L281.909 123.935ZM279.428 120.948C278.858 119.732 278.575 118.484 278.575 117.2L277.575 117.2C277.575 118.636 277.893 120.028 278.523 121.372L279.428 120.948ZM278.575 117.2C278.575 115.104 278.983 113.374 279.77 111.987L278.901 111.493C278.008 113.066 277.575 114.976 277.575 117.2L278.575 117.2ZM279.77 111.987C280.576 110.567 281.629 109.381 282.932 108.423L282.339 107.617C280.922 108.659 279.775 109.953 278.901 111.493L279.77 111.987ZM282.932 108.423C284.258 107.447 285.745 106.606 287.392 105.9L286.999 104.98C285.286 105.714 283.732 106.593 282.339 107.617L282.932 108.423ZM287.392 105.9C289.063 105.184 290.734 104.527 292.404 103.931L292.067 102.989C290.377 103.593 288.688 104.256 286.999 104.98L287.392 105.9ZM292.735 103.46L292.735 100.22L291.735 100.22L291.735 103.46L292.735 103.46ZM292.735 100.22C292.735 99.4355 292.674 98.7387 292.544 98.1352L291.567 98.3448C291.677 98.8613 291.735 99.4845 291.735 100.22L292.735 100.22ZM292.544 98.1352C292.406 97.4905 292.117 96.9545 291.642 96.5853L291.028 97.3747C291.274 97.5655 291.465 97.8695 291.567 98.3448L292.544 98.1352ZM291.689 96.6264C291.242 96.1796 290.613 96 289.895 96L289.895 97C290.458 97 290.789 97.1404 290.982 97.3336L291.689 96.6264ZM289.895 96C289.188 96 288.566 96.1543 288.088 96.5253L288.702 97.3147C288.945 97.1257 289.323 97 289.895 97L289.895 96ZM288.095 96.52C287.665 96.8427 287.378 97.3277 287.198 97.913L288.153 98.207C288.293 97.7523 288.486 97.4773 288.695 97.32L288.095 96.52ZM287.19 97.9387C287.062 98.453 286.978 99.0231 286.937 99.6467L287.934 99.7133C287.973 99.1369 288.049 98.627 288.161 98.1813L287.19 97.9387ZM286.937 99.6426L286.757 102.043L287.754 102.117L287.934 99.7174L286.937 99.6426ZM287.276 101.58L278.696 101.22L278.655 102.22L287.235 102.58L287.276 101.58ZM279.175 101.744C279.372 97.7285 280.412 94.8483 282.213 93.0099L281.498 92.3101C279.459 94.3917 278.379 97.5515 278.176 101.696L279.175 101.744ZM282.209 93.0136C284.042 91.1804 286.833 90.22 290.675 90.22L290.675 89.22C286.678 89.22 283.589 90.2196 281.502 92.3064L282.209 93.0136ZM290.675 90.22C294.105 90.22 296.542 91.1725 298.096 92.9854L298.855 92.3346C297.049 90.2275 294.286 89.22 290.675 89.22L290.675 90.22ZM298.099 92.9893C299.682 94.7978 300.495 97.2111 300.495 100.28L301.495 100.28C301.495 97.0289 300.629 94.3622 298.852 92.3307L298.099 92.9893ZM300.495 100.28L300.495 116.42L301.495 116.42L301.495 100.28L300.495 100.28ZM300.495 116.42C300.495 117.785 300.516 119.011 300.556 120.099L301.555 120.061C301.515 118.989 301.495 117.775 301.495 116.42L300.495 116.42ZM300.557 120.118C300.637 121.161 300.717 122.104 300.798 122.947L301.793 122.853C301.714 122.016 301.634 121.079 301.554 120.042L300.557 120.118ZM300.801 122.974C300.921 123.772 301.02 124.47 301.1 125.066L302.091 124.934C302.011 124.33 301.91 123.628 301.79 122.826L300.801 122.974ZM301.595 124.5L293.435 124.5L293.435 125.5L301.595 125.5L301.595 124.5ZM293.931 124.932C293.81 124.049 293.67 123.086 293.51 122.044L292.521 122.196C292.681 123.234 292.82 124.191 292.94 125.068L293.931 124.932ZM293.51 122.044C293.35 121.006 293.228 120.29 293.144 119.912L292.167 120.128C292.243 120.47 292.361 121.154 292.521 122.196L293.51 122.044ZM292.174 119.886C291.798 121.24 291.083 122.468 290.016 123.573L290.735 124.267C291.908 123.052 292.713 121.68 293.137 120.154L292.174 119.886ZM290.022 123.566C289.013 124.575 287.649 125.1 285.875 125.1L285.875 126.1C287.861 126.1 289.498 125.505 290.729 124.274L290.022 123.566ZM289.175 119.68C289.694 119.68 290.191 119.561 290.659 119.327L290.212 118.433C289.88 118.599 289.537 118.68 289.175 118.68L289.175 119.68ZM290.659 119.327C291.114 119.1 291.507 118.801 291.832 118.429L291.079 117.771C290.844 118.039 290.557 118.26 290.212 118.433L290.659 119.327ZM291.809 118.454C292.143 118.12 292.422 117.799 292.642 117.491L291.829 116.909C291.649 117.161 291.408 117.44 291.102 117.746L291.809 118.454ZM292.735 117.2L292.735 107.66L291.735 107.66L291.735 117.2L292.735 117.2ZM291.972 107.235C291.123 107.76 290.333 108.287 289.603 108.815L290.188 109.625C290.898 109.113 291.668 108.6 292.499 108.085L291.972 107.235ZM289.618 108.804C288.864 109.307 288.209 109.876 287.658 110.513L288.413 111.167C288.901 110.604 289.487 110.093 290.173 109.636L289.618 108.804ZM287.658 110.513C287.101 111.155 286.671 111.864 286.369 112.639L287.301 113.001C287.56 112.336 287.93 111.725 288.413 111.167L287.658 110.513ZM286.369 112.639C286.063 113.426 285.915 114.31 285.915 115.28L286.915 115.28C286.915 114.41 287.048 113.654 287.301 113.001L286.369 112.639ZM285.915 115.28C285.915 116.542 286.167 117.609 286.719 118.437L287.551 117.883C287.144 117.271 286.915 116.418 286.915 115.28L285.915 115.28ZM286.727 118.448C287.307 119.27 288.144 119.68 289.175 119.68L289.175 118.68C288.447 118.68 287.924 118.41 287.544 117.872L286.727 118.448ZM306.866 136.4L306.366 136.4L306.366 136.9L306.866 136.9L306.866 136.4ZM306.866 90.32L306.866 89.82L306.366 89.82L306.366 90.32L306.866 90.32ZM315.926 90.32L316.426 90.32L316.426 89.82L315.926 89.82L315.926 90.32ZM315.926 92.9L315.426 92.9L315.426 94.0444L316.266 93.2669L315.926 92.9ZM319.406 90.56L319.206 90.1019L319.2 90.1043L319.406 90.56ZM326.786 90.68L326.509 91.096L326.515 91.1001L326.521 91.104L326.786 90.68ZM329.126 93.14L328.693 93.3899L328.693 93.3899L329.126 93.14ZM330.386 96.62L330.878 96.5279L330.878 96.5279L330.386 96.62ZM329.906 120.02L329.431 119.865L329.431 119.865L329.906 120.02ZM327.326 124.1L327 123.721L326.993 123.727L327.326 124.1ZM319.286 124.7L319.056 125.144L319.062 125.147L319.286 124.7ZM315.926 122.36L316.258 121.986L315.426 121.247L315.426 122.36L315.926 122.36ZM315.926 136.4L315.926 136.9L316.426 136.9L316.426 136.4L315.926 136.4ZM320.606 118.88L320.222 118.56L320.219 118.563L320.606 118.88ZM321.446 117.02L321.935 117.123L321.935 117.123L321.446 117.02ZM321.446 97.7L320.959 97.8145L320.959 97.8145L321.446 97.7ZM320.606 96.08L320.236 96.4163L320.244 96.4251L320.253 96.4336L320.606 96.08ZM317.366 95.84L317.576 96.294L317.59 96.2875L317.603 96.2802L317.366 95.84ZM315.926 96.8L315.59 96.43L315.426 96.5788L315.426 96.8L315.926 96.8ZM315.926 118.52L315.426 118.52L315.426 118.788L315.649 118.936L315.926 118.52ZM317.366 119.3L317.174 119.762L317.191 119.769L317.208 119.774L317.366 119.3ZM307.366 136.4L307.366 90.32L306.366 90.32L306.366 136.4L307.366 136.4ZM306.866 90.82L315.926 90.82L315.926 89.82L306.866 89.82L306.866 90.82ZM315.426 90.32L315.426 92.9L316.426 92.9L316.426 90.32L315.426 90.32ZM316.266 93.2669C317.309 92.3005 318.425 91.5518 319.612 91.0157L319.2 90.1043C317.907 90.6882 316.703 91.4995 315.586 92.5331L316.266 93.2669ZM319.606 91.0181C320.829 90.4832 322.041 90.22 323.246 90.22L323.246 89.22C321.891 89.22 320.543 89.5168 319.206 90.1019L319.606 91.0181ZM323.246 90.22C324.569 90.22 325.647 90.5215 326.509 91.096L327.063 90.264C326.005 89.5585 324.723 89.22 323.246 89.22L323.246 90.22ZM326.521 91.104C327.407 91.658 328.131 92.4164 328.693 93.3899L329.559 92.8901C328.921 91.7836 328.085 90.902 327.051 90.256L326.521 91.104ZM328.693 93.3899C329.262 94.377 329.664 95.4829 329.895 96.7121L330.878 96.5279C330.628 95.1971 330.19 93.983 329.559 92.8901L328.693 93.3899ZM329.895 96.7121C330.129 97.9613 330.246 99.2305 330.246 100.52L331.246 100.52C331.246 99.1695 331.123 97.8387 330.878 96.5279L329.895 96.7121ZM330.246 100.52L330.246 114.08L331.246 114.08L331.246 100.52L330.246 100.52ZM330.246 114.08C330.246 116.279 329.971 118.205 329.431 119.865L330.382 120.175C330.961 118.395 331.246 116.361 331.246 114.08L330.246 114.08ZM329.431 119.865C328.894 121.514 328.079 122.791 327 123.721L327.653 124.479C328.893 123.409 329.798 121.966 330.382 120.175L329.431 119.865ZM326.993 123.727C325.982 124.63 324.649 125.1 322.946 125.1L322.946 126.1C324.843 126.1 326.43 125.57 327.659 124.473L326.993 123.727ZM322.946 125.1C321.79 125.1 320.646 124.821 319.51 124.253L319.062 125.147C320.326 125.779 321.622 126.1 322.946 126.1L322.946 125.1ZM319.516 124.256C318.396 123.677 317.31 122.922 316.258 121.986L315.594 122.734C316.702 123.718 317.856 124.523 319.056 125.144L319.516 124.256ZM315.426 122.36L315.426 136.4L316.426 136.4L316.426 122.36L315.426 122.36ZM315.926 135.9L306.866 135.9L306.866 136.9L315.926 136.9L315.926 135.9ZM318.926 120.04C319.782 120.04 320.509 119.789 320.993 119.197L320.219 118.563C319.984 118.851 319.59 119.04 318.926 119.04L318.926 120.04ZM320.99 119.2C321.454 118.644 321.763 117.944 321.935 117.123L320.957 116.917C320.81 117.616 320.559 118.156 320.222 118.56L320.99 119.2ZM321.935 117.123C322.104 116.324 322.186 115.448 322.186 114.5L321.186 114.5C321.186 115.392 321.109 116.196 320.957 116.917L321.935 117.123ZM322.186 114.5L322.186 99.98L321.186 99.98L321.186 114.5L322.186 114.5ZM322.186 99.98C322.186 99.1089 322.103 98.3097 321.933 97.5855L320.959 97.8145C321.109 98.4503 321.186 99.1711 321.186 99.98L322.186 99.98ZM321.933 97.5855C321.756 96.8362 321.439 96.2061 320.96 95.7264L320.253 96.4336C320.573 96.7539 320.816 97.2038 320.959 97.8145L321.933 97.5855ZM320.976 95.7437C320.467 95.184 319.785 94.92 318.986 94.92L318.986 95.92C319.548 95.92 319.945 96.096 320.236 96.4163L320.976 95.7437ZM318.986 94.92C318.339 94.92 317.718 95.0827 317.129 95.3998L317.603 96.2802C318.054 96.0372 318.513 95.92 318.986 95.92L318.986 94.92ZM317.157 95.386C316.588 95.6482 316.066 95.997 315.59 96.43L316.262 97.17C316.666 96.803 317.104 96.5118 317.576 96.294L317.157 95.386ZM315.426 96.8L315.426 118.52L316.426 118.52L316.426 96.8L315.426 96.8ZM315.649 118.936C316.153 119.272 316.661 119.548 317.174 119.762L317.558 118.838C317.111 118.652 316.659 118.408 316.203 118.104L315.649 118.936ZM317.208 119.774C317.744 119.953 318.318 120.04 318.926 120.04L318.926 119.04C318.414 119.04 317.948 118.967 317.524 118.826L317.208 119.774Z" fill="white"/>
<g filter="url(#filter1_d_3_30)">
<path d="M8.02806 180.003C32.6307 189.095 46.4256 189.405 71.0281 180.49" stroke="white" stroke-width="8" stroke-linecap="round"/>
</g>
</g>
<defs>
<filter id="filter0_b_3_30" x="0.0269775" y="-3.02881" width="334.719" height="198.032" filterUnits="userSpaceOnUse" color-interpolation-filters="sRGB">
<feFlood flood-opacity="0" result="BackgroundImageFix"/>
<feGaussianBlur in="BackgroundImageFix" stdDeviation="2"/>
<feComposite in2="SourceAlpha" operator="in" result="effect1_backgroundBlur_3_30"/>
<feBlend mode="normal" in="SourceGraphic" in2="effect1_backgroundBlur_3_30" result="shape"/>
</filter>
<filter id="filter1_d_3_30" x="0.0269775" y="176.002" width="79.0022" height="23.0011" filterUnits="userSpaceOnUse" color-interpolation-filters="sRGB">
<feFlood flood-opacity="0" result="BackgroundImageFix"/>
<feColorMatrix in="SourceAlpha" type="matrix" values="0 0 0 0 0 0 0 0 0 0 0 0 0 0 0 0 0 0 127 0" result="hardAlpha"/>
<feOffset dy="4"/>
<feGaussianBlur stdDeviation="2"/>
<feComposite in2="hardAlpha" operator="out"/>
<feColorMatrix type="matrix" values="0 0 0 0 0 0 0 0 0 0 0 0 0 0 0 0 0 0 0.25 0"/>
<feBlend mode="normal" in2="BackgroundImageFix" result="effect1_dropShadow_3_30"/>
<feBlend mode="normal" in="SourceGraphic" in2="effect1_dropShadow_3_30" result="shape"/>
</filter>
</defs>
</svg>
